<?xml version="1.0" encoding="UTF-8"?>
<svg width="36px" height="36px" viewBox="0 0 36 36" version="1.1" xmlns="http://www.w3.org/2000/svg" xmlns:xlink="http://www.w3.org/1999/xlink">
    <!-- Generator: Sketch 47.1 (45422) - http://www.bohemiancoding.com/sketch -->
    <title>icon-搜索</title>
    <desc>Created with Sketch.</desc>
    <defs></defs>
    <g id="__wesketch_export" stroke="none" stroke-width="1" fill="none" fill-rule="evenodd">
        <g id="icon-搜索" fill-rule="nonzero" fill="#FFFFFF">
            <g id="Shape">
                <path d="M34.5675586,32.9048438 L34.5665742,32.9038594 L34.5665742,32.9048789 L34.5675586,32.9048789 C34.8885352,33.2798555 35.0495508,33.6948398 35.0495508,34.149832 C35.0495508,34.6588242 34.8685664,35.0937773 34.5065625,35.4557813 C34.1645543,35.809433 33.6915513,36.0059504 33.1996289,35.9987695 C32.9878723,35.9990703 32.777474,35.9649577 32.5766602,35.8977656 C32.3784211,35.8327791 32.1942087,35.7310061 32.0336719,35.5977773 L31.8326484,35.4367617 L21.8999883,25.4331211 C19.5150938,27.1210781 16.8471563,27.9640195 13.8982852,27.9640195 C13.6032891,27.9640195 13.3022813,27.9510117 12.9943125,27.9250313 C12.6909264,27.8988476 12.3889319,27.8584792 12.0893203,27.8040586 C10.0467313,27.5709716 8.08907855,26.8545435 6.37853906,25.714125 C4.50260156,24.5091797 3.00164062,22.9162148 1.87569141,20.9332969 C1.33474793,20.0112886 0.909234554,19.0262602 0.608730469,18.0003867 C0.302520712,16.9669055 0.113666708,15.9022284 0.0457382813,14.8264805 C-0.0212543146,13.7517986 0.0395103303,12.6729636 0.226757813,11.6126016 C0.494432982,9.89845039 1.09575427,8.25345255 1.99666406,6.77077734 C2.88899799,5.2792523 4.06353624,3.9759851 5.4545625,2.93389453 C6.63451172,1.99592578 7.95448828,1.27297266 9.41544141,0.763980469 C10.8559307,0.25827699 12.3716073,-2.94354037e-05 13.8982852,4.27353708e-14 C14.5422422,4.27353708e-14 15.1582148,0.0400078125 15.7492266,0.121007813 C17.330168,0.335003906 18.8441016,0.816960938 20.2920469,1.56694922 C21.7147727,2.29806258 22.9952345,3.27779537 24.0729258,4.45985156 C25.3318711,5.77279688 26.2898789,7.32575391 26.9468438,9.12069141 C27.6038086,10.9156289 27.892793,12.736582 27.811793,14.5845 C27.7048125,17.6653828 26.6458359,20.4373125 24.6348984,22.9012031 L34.606582,32.9048789 L34.5675586,32.9048789 L34.5675586,32.9048438 Z M25.7208398,14.5444922 C25.8087275,12.8980846 25.5342902,11.2524451 24.9168867,9.72365625 C24.5668054,8.78136295 24.0933702,7.88962879 23.5089492,7.07175 C22.918957,6.24178125 22.2289805,5.49882422 21.4390195,4.84182422 C20.6608411,4.19268531 19.8029294,3.64560942 18.8861133,3.21387891 C16.9280706,2.30619777 14.7568496,1.95869483 12.6133242,2.20992188 C12.491634,2.21131803 12.3703786,2.22471889 12.2513203,2.24992969 L12.0093398,2.2899375 C10.296781,2.55581326 8.66728468,3.20829467 7.24450781,4.19786719 C5.81455778,5.16933584 4.62507874,6.45422377 3.76660547,7.95473438 C2.77565625,9.58767188 2.23266797,11.4096094 2.13767578,13.418543 C2.04366797,15.4274766 2.41168359,17.2894219 3.24362109,19.0033594 C3.93868145,20.5547532 4.97630299,21.9284485 6.27851953,23.0212266 C7.56838768,24.1267635 9.08494513,24.9360742 10.7213906,25.3921641 C12.437332,25.8741211 14.1662812,25.9681289 15.9082031,25.6731328 C16.8218898,25.5117508 17.7131225,25.2421988 18.5630977,24.8701641 C19.4105084,24.5006213 20.2130036,24.0356277 20.9550234,23.4841992 C21.6947348,22.9327695 22.3693768,22.2990542 22.9659609,21.5952539 C23.5689609,20.8852734 24.0719414,20.1153164 24.473918,19.2853477 L24.473918,19.286332 C25.2245293,17.8133235 25.6497844,16.1961936 25.720875,14.5444922 L25.7208398,14.5444922 Z"></path>
            </g>
        </g>
    </g>
</svg>